<svg width="58.000000" height="58.000000" viewBox="0 0 58 58" fill="none" xmlns="http://www.w3.org/2000/svg" xmlns:xlink="http://www.w3.org/1999/xlink">
	<desc>
			Created with Pixso.
	</desc>
	<defs>
		<clipPath id="clip75_589">
			<rect id="Icon" width="30.000000" height="30.000000" transform="translate(14.000000 14.000000)" fill="white" fill-opacity="0"/>
		</clipPath>
	</defs>
	<g clip-path="url(#clip75_589)">
		<path id="Vector (Stroke)" d="M39.5 29C39.5 29.62 38.99 30.12 38.37 30.12L22.41 30.12L28.65 36.06C29.1 36.49 29.11 37.2 28.68 37.65C28.25 38.1 27.54 38.11 27.09 37.68L18.84 29.81C18.62 29.59 18.5 29.3 18.5 29C18.5 28.69 18.62 28.4 18.84 28.18L27.09 20.31C27.54 19.88 28.25 19.89 28.68 20.34C29.11 20.79 29.1 21.5 28.65 21.93L22.41 27.87L38.37 27.87C38.99 27.87 39.5 28.37 39.5 29Z" fill="#808080" fill-opacity="1.000000" fill-rule="evenodd"/>
	</g>
	<rect id="Button" rx="28.500000" width="57.000000" height="57.000000" transform="translate(0.500000 0.500000)" stroke="#262626" stroke-opacity="1.000000" stroke-width="1.000000"/>
</svg>
