<svg width="25.000000" height="25.000000" viewBox="0 0 25 25" fill="none" xmlns="http://www.w3.org/2000/svg" xmlns:xlink="http://www.w3.org/1999/xlink">
	<desc>
			Created with Pixso.
	</desc>
	<defs/>
	<path id="Fill-1" d="M23.78 0.22C23.15 -0.42 22.23 -0.66 21.37 -0.41L1.25 5.4C0.34 5.66 -0.3 6.38 -0.47 7.29C-0.65 8.23 -0.03 9.41 0.78 9.91L7.07 13.75C7.71 14.14 8.54 14.04 9.08 13.51L16.28 6.31C16.64 5.93 17.24 5.93 17.6 6.31C17.97 6.67 17.97 7.26 17.6 7.63L10.39 14.83C9.86 15.37 9.76 16.2 10.15 16.84L13.99 23.16C14.44 23.9 15.22 24.33 16.07 24.33C16.17 24.33 16.28 24.33 16.38 24.32C17.35 24.19 18.13 23.53 18.42 22.59L24.38 2.63C24.64 1.78 24.4 0.86 23.78 0.22Z" fill="#FFFFFF" fill-opacity="1.000000" fill-rule="nonzero"/>
</svg>
