<svg width="1920.000000" height="1282.000000" viewBox="0 0 1920 1282" fill="none" xmlns="http://www.w3.org/2000/svg" xmlns:xlink="http://www.w3.org/1999/xlink">
	<desc>
			Created with Pixso.
	</desc>
	<defs>
		<clipPath id="clip89_3785">
			<rect id="Abstract Design" width="1920.000000" height="1282.000000" fill="white" fill-opacity="0"/>
		</clipPath>
	</defs>
	<rect id="Abstract Design" width="1920.000000" height="1282.000000" fill="#FFFFFF" fill-opacity="0"/>
	<g clip-path="url(#clip89_3785)">
		<path id="Vector" d="M0.84 1280.69C640.18 1277.99 1279.68 1276.78 1919.03 " stroke="#666666" stroke-opacity="1.000000" stroke-width="1.000000"/>
		<path id="Vector" d="M0.84 1255.19C185.93 1242.82 373.86 1238.61 559.21 1248.38C634.91 1252.37 710.82 1254.32 786.55 1250.14C869.14 1245.56 947.76 1227.31 1029.25 1216.16C1174.16 1196.31 1321.09 1242.93 1465.39 1250.69C1617.39 1258.91 1766.65 1237.59 1919.03 " stroke="#666666" stroke-opacity="1.000000" stroke-width="1.000000"/>
		<path id="Vector" d="M0.84 1226.72C193.09 1205.47 392.35 1201.59 585.07 1220.66C662.33 1228.31 740.24 1232.34 817.63 1224.24C908.96 1214.69 988.22 1179.56 1076.1 1158.12C1222.88 1122.3 1367.79 1209.28 1511.89 1223.42C1575.14 1229.63 1637.75 1216.06 1700.84 1211.99C1775.45 1207.16 1846.62 1214.86 1919.03 " stroke="#666666" stroke-opacity="1.000000" stroke-width="1.000000"/>
		<path id="Vector" d="M0.84 1195.82C199 1167.12 402.74 1170.65 601.05 1197.26C679.08 1207.72 757.17 1213.48 835.38 1201.36C876.07 1195.04 915.76 1184.43 954.59 1170.75C1007.38 1152.16 1056.05 1118 1108.4 1100.92C1255.34 1052.98 1394.78 1175.3 1534.11 1197.16C1598.05 1207.18 1656.39 1186.4 1719.38 1179.21C1789.54 1171.21 1853.43 1184.91 1919.05 " stroke="#666666" stroke-opacity="1.000000" stroke-width="1.000000"/>
		<path id="Vector" d="M0.84 1163C194.83 1129.02 393.02 1139.66 586.32 1174.05C670.21 1188.98 754.23 1198.81 838.63 1181.68C945.79 1159.93 1024.81 1095.53 1122.93 1054.36C1282.04 987.59 1408.74 1149.55 1557.16 1174.18C1615.75 1183.89 1664.06 1159.09 1720.15 1148.27C1792.15 1134.39 1854.35 1154.81 1919.03 " stroke="#666666" stroke-opacity="1.000000" stroke-width="1.000000"/>
		<path id="Vector" d="M0.84 1128.77C194.99 1088.93 385.42 1112.5 576.7 1155.64C660.85 1174.61 745.22 1184.99 830.11 1164C874.18 1153.11 915.81 1135.34 956.02 1114.47C1016.2 1083.25 1069.44 1031.09 1129.84 1003.2C1292.14 928.2 1407.95 1117.31 1552.32 1148.71C1618.03 1163 1661.74 1131.6 1722.32 1116.18C1794.35 1097.88 1857.13 1127.41 1919.03 " stroke="#666666" stroke-opacity="1.000000" stroke-width="1.000000"/>
		<path id="Vector" d="M0.84 1093.66C191.15 1048.48 365.7 1086.18 550.11 1136.39C635.73 1159.68 721.31 1173.77 808.5 1149.6C854.64 1136.81 897.58 1115.75 938.81 1091.74C1003.42 1054.13 1059.14 994.17 1124.18 960.06C1295 870.49 1396.31 1090.11 1543.93 1125.07C1613.32 1141.52 1653.96 1103.84 1715.75 1084.38C1790.54 1060.82 1857.01 1099.94 1919 " stroke="#666666" stroke-opacity="1.000000" stroke-width="1.000000"/>
		<path id="Vector" d="M0.84 1058.17C182.58 1008.11 336.93 1057.56 509.16 1114.17C594.58 1142.24 679.77 1163.26 768.8 1140.25C904.25 1105.24 992.54 998.72 1106.38 926.95C1291.25 810.43 1373.62 1069.91 1534.91 1102.93C1604.73 1117.26 1644.22 1072.74 1705.93 1051.24C1784.09 1024.01 1856.24 1073.05 1919.03 " stroke="#666666" stroke-opacity="1.000000" stroke-width="1.000000"/>
		<path id="Vector" d="M0.84 1022.86C177.18 965.91 312.58 1029.92 474.53 1093.35C561.97 1127.59 650.41 1155.36 743.59 1127.05C881.72 1085.09 971.75 970.8 1085.94 891.3C1280.09 756.17 1343.83 1044.93 1510.58 1078.88C1581.56 1093.32 1625.37 1043.93 1686.14 1019.82C1771.97 985.75 1850.77 1043.72 1919.03 " stroke="#666666" stroke-opacity="1.000000" stroke-width="1.000000"/>
		<path id="Vector" d="M0.84 988.18C79.84 958.09 156.95 951.16 238.67 975.45C314.12 997.87 378.9 1043.16 450.1 1075.19C534.2 1113.04 620.59 1146.23 712.61 1116.07C858.78 1068.18 946.76 938.14 1066.05 851.88C1259.19 712.17 1315.39 1009.97 1473.96 1050.14C1554.24 1070.47 1600.76 1011.53 1669.02 984.58C1761.28 948.14 1847.47 1016.16 1919.03 " stroke="#666666" stroke-opacity="1.000000" stroke-width="1.000000"/>
		<path id="Vector" d="M0.84 954.71C71.94 922.52 142.78 912.5 217.88 937.66C291.84 962.44 351.92 1014.6 420.05 1050.69C499.31 1092.71 580.87 1134.88 672.08 1107.98C824.99 1062.93 920.98 916.87 1039.66 822.37C1242.01 661.21 1275.59 985.29 1441.38 1022.6C1526.44 1041.75 1579.41 973.4 1652.45 946.76C1750.71 910.94 1844.96 989.21 1919 " stroke="#666666" stroke-opacity="1.000000" stroke-width="1.000000"/>
		<path id="Vector" d="M0.84 922.93C165.16 834.72 263.86 939.07 397.7 1023.4C473.71 1071.29 555.55 1126.68 648.7 1095.86C799.55 1045.92 898.78 895.78 1013.13 795.93C1086.94 731.5 1157.61 716.54 1220.82 798.05C1275.67 868.73 1310.89 970.51 1408.46 991C1493.42 1008.82 1553.42 938.86 1626.31 910.35C1733.58 868.37 1839.77 960.16 1919.03 " stroke="#666666" stroke-opacity="1.000000" stroke-width="1.000000"/>
		<path id="Vector" d="M0.84 893.37C160 793.37 259.18 897.21 384.71 991.46C451.66 1041.73 527.47 1111.35 617.93 1087.75C673 1073.38 721.82 1032.55 763.87 996.49C844.69 927.23 911.77 845.51 988.5 772.33C1062.06 702.17 1134.56 674.55 1197.64 767.11C1244.65 836.1 1280.71 942.67 1375.21 957.73C1465.06 972.05 1530.81 894.98 1609.61 868.34C1723.27 829.89 1837.85 933.24 1919.03 " stroke="#666666" stroke-opacity="1.000000" stroke-width="1.000000"/>
		<path id="Vector" d="M0.84 866.58C62.89 821.96 131.35 793.96 206.95 821.14C274.27 845.36 326.6 901.61 378.34 948.47C436.65 1001.3 510.31 1095.09 599.82 1076.66C650.21 1066.28 694.53 1027.72 732.18 994.88C815.28 922.39 888.12 838.43 962.82 757.65C1032.75 682.02 1110.25 627.61 1175.46 732.88C1219.38 803.73 1253.47 915.8 1353.06 919.74C1441.45 923.24 1507.87 852.67 1587.54 826.64C1709.74 786.73 1833.71 904.04 1919.05 " stroke="#666666" stroke-opacity="1.000000" stroke-width="1.000000"/>
		<path id="Vector" d="M0.84 841.98C64.52 792.38 135.47 759.44 215.91 788.03C283.78 812.14 340 867.11 390.18 916.54C442.35 967.96 512.38 1068.96 597.8 1051.73C645.61 1042.09 687.65 1003.45 722.9 972.1C803.48 900.38 875.45 818.61 948.27 739.27C1014.95 666.63 1093.26 600.4 1159.4 705.19C1202.68 773.74 1235.54 883.15 1333.27 884.5C1420.89 885.7 1493.96 822.11 1575.78 800.33C1703.12 766.4 1827.57 877.62 1919.03 " stroke="#666666" stroke-opacity="1.000000" stroke-width="1.000000"/>
		<path id="Vector" d="M0.84 814.57C71.1 759.32 146.06 729.6 231.94 767.96C302.97 799.69 365.17 859.72 420.13 912.88C469.44 960.59 530.54 1041.12 608.29 1016.03C655.73 1000.72 696.99 959.8 732.38 926.92C803.33 861.03 869.27 789.67 936.2 719.76C999.98 653.1 1077.38 588.26 1145.94 681.2C1194.72 747.32 1225.77 853.08 1323.14 857.91C1409.87 862.2 1493.73 805.01 1577.34 789.67C1703.78 766.45 1821.38 853.59 1919.05 " stroke="#666666" stroke-opacity="1.000000" stroke-width="1.000000"/>
		<path id="Vector" d="M0.84 784.12C76.39 726.49 153.37 701.15 241.64 746.66C309.26 781.51 371.66 837.63 427.29 888.85C479.13 936.59 542.79 1018.84 621.13 982.43C662.02 963.43 695.68 927.25 727.81 896.65C795.38 832.21 859.29 763.89 925.28 697.87C993.54 629.58 1070.88 576.63 1141.69 667.42C1190.44 729.94 1225.56 828.35 1318 832.44C1403.04 836.23 1487.51 795.5 1570.51 781.94C1698.62 761.03 1812.35 826.33 1919.05 " stroke="#666666" stroke-opacity="1.000000" stroke-width="1.000000"/>
		<path id="Vector" d="M0.84 751.18C87.98 688.34 171.1 674.12 263.89 732.6C330.56 774.61 392.2 831.52 451.87 882.84C501.69 925.69 557.73 992.96 627.45 954C664.79 933.13 695.86 895.93 725.61 865.84C788.93 801.73 850.6 736.07 915.76 673.81C983.28 609.3 1060.57 562.74 1132.43 644.26C1186.1 705.11 1223.26 802.17 1315.47 810.96C1396.72 818.71 1485.26 786.96 1565.19 774.58C1692.91 754.82 1805.29 799.94 1919 " stroke="#666666" stroke-opacity="1.000000" stroke-width="1.000000"/>
		<path id="Vector" d="M0.84 716.39C95.24 652.9 182.04 646.1 276.65 712.52C348.03 762.64 412.18 825.97 480.05 880.9C526.73 918.64 578.37 970.39 636.7 927.02C675.27 898.36 706.76 855.17 738.78 819.99C792.92 760.54 848.42 701.89 907.99 647.84C980.98 581.59 1060.14 550.29 1133.65 630.14C1187.46 688.59 1228.68 779.82 1317.1 789.72C1400.79 799.08 1491.27 777.11 1574.16 765.73C1696.06 749.01 1804.55 776.24 1919.03 " stroke="#666666" stroke-opacity="1.000000" stroke-width="1.000000"/>
		<path id="Vector" d="M0.84 680.26C108.46 612.98 199.95 620.14 298.75 699C373.71 758.83 437.6 828.45 515.73 884.91C569.34 923.62 607.98 945.48 656.91 891.53C740.06 799.84 807.4 695.34 904.82 616.28C976.33 558.27 1055 536.64 1126.26 604.16C1186.46 661.21 1226.97 748.78 1313.88 769.34C1394.11 788.29 1494.8 769.59 1575.47 758.6C1694.52 742.36 1801.97 751.9 1919.05 " stroke="#666666" stroke-opacity="1.000000" stroke-width="1.000000"/>
		<path id="Vector" d="M0.84 643.41C121.35 573.12 219.49 595.96 321.1 685.93C393.89 750.39 454.43 825.03 537.04 877.98C597.68 916.87 629.59 923.75 671.08 861.82C736.81 763.71 802.97 663.43 898.73 591.07C976.15 532.54 1054.59 519.4 1130.25 586.88C1193.24 643.08 1238.06 733.49 1327.15 753.38C1406.16 771.03 1498.36 762.64 1578 751.8C1693.63 736.05 1802.25 728.94 1919.05 " stroke="#666666" stroke-opacity="1.000000" stroke-width="1.000000"/>
		<path id="Vector" d="M0.84 606.44C132.2 533.95 234.96 569.67 339.08 668.85C412.76 739.04 473.51 824.77 564.22 874.53C631.56 911.48 655.2 892.27 687.32 828.94C738.42 728.22 803.05 626.43 897.71 560.82C977.83 505.26 1058.89 503.55 1134.16 567.4C1199.81 623.11 1247.64 711.17 1335.59 735.87C1524.24 788.85 1729.54 709.66 1919.05 " stroke="#666666" stroke-opacity="1.000000" stroke-width="1.000000"/>
		<path id="Vector" d="M0.84 569.9C66.19 535.1 127.62 514.44 200.74 539.78C261.23 560.75 310.77 604.75 355.14 649.57C428.34 723.57 490.92 823.14 588.44 867.11C661.59 900.1 678.91 855.66 703.59 793.65C743.82 692.5 804.56 588.87 899.47 529.65C1106.32 400.56 1180.99 661.77 1345.57 718.41C1537.77 784.55 1731.1 701.1 1919.05 " stroke="#666666" stroke-opacity="1.000000" stroke-width="1.000000"/>
		<path id="Vector" d="M0.84 534.39C69 498.33 131.81 478.24 206.26 505.62C268.72 528.58 319.21 575.5 364.45 623.03C435.6 697.77 509.18 827.15 615.32 856.91C689.62 877.75 701.33 808.25 720.16 752.31C753.1 654.38 809.88 546.4 904.87 494.6C1102.06 387.06 1201.37 628.86 1350.25 697.21C1545.57 786.88 1734.7 694.93 1919.03 " stroke="#666666" stroke-opacity="1.000000" stroke-width="1.000000"/>
		<path id="Vector" d="M0.84 500.51C69.66 463.07 131.66 442.75 207.42 469.26C270.23 491.25 321.56 540.32 366.22 588.13C438.67 665.73 516.34 813.14 629.01 835.13C705.58 850.09 716.32 773.61 733.05 716.18C761.77 617.66 813.48 508.61 912.74 462.79C1110.22 371.64 1216.72 603.78 1362.37 678.85C1438.2 717.92 1536.39 737.94 1620.87 724.34C1727.95 707.1 1825.88 643.67 1919.05 " stroke="#666666" stroke-opacity="1.000000" stroke-width="1.000000"/>
		<path id="Vector" d="M0.84 468.8C74.14 426.43 144.98 402.02 226.14 438.63C287.03 466.12 335.35 516.64 379 565.68C444.43 639.17 526.88 793.99 636.93 805.6C719.77 814.34 730.24 723.9 747.99 662.84C775.43 568.47 824.84 467.29 924.3 430.88C1120.3 359.11 1233.62 574.32 1375.03 658.42C1446.49 700.92 1539.89 730.01 1623.47 719.61C1735.45 705.65 1832.35 624.64 1919 " stroke="#666666" stroke-opacity="1.000000" stroke-width="1.000000"/>
		<path id="Vector" d="M0.84 439.88C70.05 395.8 138.18 365.12 219.95 398.13C285.47 424.59 337.65 480.77 382.66 533.26C447.01 608.31 527.93 762.38 642.25 765.09C723.77 767.01 738.85 675.27 758.09 614.01C787.83 519.35 834.87 427.53 939.19 400.76C1138.97 349.47 1249.89 546.25 1392.83 640.65C1462.81 686.88 1556.13 725 1641.38 712.7C1752.86 696.6 1842.43 603.96 1919.03 " stroke="#666666" stroke-opacity="1.000000" stroke-width="1.000000"/>
		<path id="Vector" d="M0.84 414.34C64.37 368.29 130.36 329.71 211.15 356.76C274.12 377.83 323.71 429.43 366.09 478.36C435.5 558.5 505.32 701.04 624.81 710.15C715.66 717.05 739.26 628.79 765.4 558.96C801.06 463.69 850.75 383.02 959.93 368.26C1153.49 342.11 1265.03 508.48 1399.51 613.21C1466.93 665.71 1558.21 715.98 1646.42 707.39C1763.43 695.98 1849.54 587.21 1919.03 " stroke="#666666" stroke-opacity="1.000000" stroke-width="1.000000"/>
		<path id="Vector" d="M0.84 394.19C64.06 350.09 129.25 313.78 208.44 339.55C270.1 359.62 319.18 408.94 361.05 456.4C428.49 532.8 499.87 679.46 615.94 683.48C705.68 686.57 736.4 607.1 768.57 537.25C809.83 447.73 865.66 365.78 971.54 351.49C1158.32 326.28 1275 481.71 1407.56 581.13C1472.6 629.89 1564.34 679.49 1647.87 677.85C1764.65 675.55 1851.15 564.51 1919.03 " stroke="#666666" stroke-opacity="1.000000" stroke-width="1.000000"/>
		<path id="Vector" d="M0.84 380.41C63.07 337.84 127.31 302.53 204.93 326C264.91 344.13 313.27 390.31 354.48 435.51C420.85 508.36 491.92 653.49 604.22 654.18C692.28 654.71 729.78 584.65 768.22 516.41C815.17 433.06 876.81 353.08 978.93 339.06C1158.97 314.39 1280.57 453.79 1413.22 546.58C1477.62 591.63 1568.36 641.9 1648.05 649.01C1764.24 659.37 1852.15 547.22 1919 " stroke="#666666" stroke-opacity="1.000000" stroke-width="1.000000"/>
		<path id="Vector" d="M0.84 371.87C60.53 331.09 124.35 295.83 198.9 314.75C262.45 330.86 312.94 378.9 356.22 425.41C422 496.11 487.96 627.43 597.86 622.55C681 618.87 723.38 555.76 766.81 493.65C820.13 417.36 884.51 345.82 982.16 331.96C1159.48 306.77 1283.69 427.28 1421.66 513.24C1485.39 552.97 1566.26 600.1 1639.69 619.09C1758.72 649.88 1849.36 538.37 1919.03 " stroke="#666666" stroke-opacity="1.000000" stroke-width="1.000000"/>
		<path id="Vector" d="M0.84 367.47C58.9 327.3 121.35 291.28 194.68 306.18C255.73 318.61 305.35 361.36 347.88 404.29C414.58 471.59 476.68 592.45 583.15 587.72C663.92 584.14 712.49 531.01 761.9 473.76C821.11 405.19 889.44 340.04 983.33 326.38C1153.16 301.68 1283.29 398.03 1422.86 474.68C1492.12 512.73 1564.96 559.24 1637.67 590.02C1754.73 639.6 1846.75 532.31 1919 " stroke="#666666" stroke-opacity="1.000000" stroke-width="1.000000"/>
		<path id="Vector" d="M0.84 366.12C122.99 279.54 228.64 279.98 339.57 382.63C407.67 445.66 465.55 553.84 568.29 550.16C646.42 547.35 700.75 504.29 755.81 453.74C820.7 394.19 892.18 336.58 982.34 323.19C1144.16 299.13 1281.17 368.8 1421.99 434.9C1499.51 471.28 1562.22 516.92 1634.42 561.18C1748.44 631.06 1841.51 531.29 1919.05 " stroke="#666666" stroke-opacity="1.000000" stroke-width="1.000000"/>
		<path id="Vector" d="M0.84 366.7C114.52 283.45 219.15 267.29 331.74 359.95C401.64 417.48 455.47 511.73 554.04 509.79C718.16 506.57 819.24 345.87 979.65 321.63C1133.31 298.41 1277.66 339.58 1419 394.11C1505.39 427.46 1559.79 474.68 1629.87 532.29C1739.79 622.65 1833.22 534.26 1919.03 " stroke="#666666" stroke-opacity="1.000000" stroke-width="1.000000"/>
		<path id="Vector" d="M0.84 368.14C104.81 288.92 208.62 255.38 322.17 333.85C392.38 382.35 443.86 463.41 534.58 466.53C697.7 472.18 819.09 344.43 975.64 320.02C1118.48 297.75 1271.14 310.1 1408.94 351.41C1507.05 380.84 1557.16 434.36 1626.31 505.8C1652.15 532.49 1681.2 560.29 1720 564.48C1797.19 572.79 1869.39 496.31 1919.03 " stroke="#666666" stroke-opacity="1.000000" stroke-width="1.000000"/>
		<path id="Vector" d="M0.84 369.31C97.57 292.66 200.89 243.95 316.98 308.13C388.8 347.84 438.75 415.23 524.4 420.22C683.76 429.5 818.01 344.13 971.31 320.32C1108.84 298.97 1264.67 281.18 1402.01 310.63C1507.67 333.29 1555.19 396.47 1619.23 477.21C1643.76 508.15 1671.53 543.74 1712.07 553.46C1790.38 572.23 1867.65 495.09 1919 " stroke="#666666" stroke-opacity="1.000000" stroke-width="1.000000"/>
		<path id="Vector" d="M0.84 369.11C95.24 291.38 200.15 231.22 321.69 283.07C387.95 311.35 437.27 363.18 511 370.39C669.47 385.91 813.56 343.8 968.3 321.09C1049.82 309.12 1130.17 297.26 1211.01 280.97C1273.85 268.32 1334.93 261.74 1398.82 270.9C1509.2 286.7 1555.83 365.55 1613.07 451.47C1635.98 485.86 1663.53 528.56 1705.16 542.24C1784.96 568.47 1864.55 493.81 1919.03 " stroke="#666666" stroke-opacity="1.000000" stroke-width="1.000000"/>
		<path id="Vector" d="M0.84 366.45C91.76 289.18 196.72 217.59 321 250.7C386.88 268.26 440.05 309.12 508.52 317.77C664.71 337.45 809.42 341.93 965.48 320.2C1048.12 308.69 1125.59 291.74 1204.42 264.43C1265.11 243.41 1323.34 226.18 1388.41 230.78C1504.27 238.96 1551.33 332.11 1603.63 422.57C1625.9 461.11 1652.81 510.68 1695.98 529.43C1777.31 564.74 1861.12 490.54 1919.08 " stroke="#666666" stroke-opacity="1.000000" stroke-width="1.000000"/>
		<path id="Vector" d="M0.84 360.24C90.48 282.25 195.04 202.6 320.79 214.67C388.31 221.14 450.1 253.05 517.14 262.92C670.36 285.5 805.15 337.02 962.54 317.82C1045.81 307.64 1120.65 285.91 1195.68 248.73C1252.22 220.73 1306.07 192.4 1370.84 191.58C1496.72 190.05 1544.27 299.97 1594.96 396.93C1616.85 438.81 1643.17 493.3 1687.77 515.75C1770.54 557.42 1857.8 484.02 1919.03 " stroke="#666666" stroke-opacity="1.000000" stroke-width="1.000000"/>
		<path id="Vector" d="M0.84 349.37C92.32 268.85 197.16 184.02 324.14 175.63C392.61 171.1 464.68 191.46 531.31 205.26C681.16 236.3 805.91 330.73 965.05 313.55C1046.87 304.73 1119.12 278.11 1187.71 233.21C1243.06 196.98 1293.78 158.14 1362.5 154.12C1491.12 146.63 1538.23 274.3 1585.16 371.18C1607.46 417.18 1633.07 472.82 1679.05 500.05C1761.63 548.93 1856.85 471.69 1919.03 " stroke="#666666" stroke-opacity="1.000000" stroke-width="1.000000"/>
		<path id="Vector" d="M0.84 332.7C157.39 195.24 322.38 89.26 535.5 140.75C687.22 177.42 804.07 320.02 968.68 306.57C1052.09 299.74 1122.34 266.27 1185.8 213.27C1235.49 171.77 1279.76 126.25 1347.56 118.92C1476.87 104.93 1524.27 235.69 1568.59 332.44C1592.78 385.24 1618.97 451.29 1671.48 482.74C1756.14 533.44 1854.45 455.53 1919 " stroke="#666666" stroke-opacity="1.000000" stroke-width="1.000000"/>
		<path id="Vector" d="M0.84 310.04C151.48 181.38 345.27 39.06 556.01 98.08C703.94 139.5 815.71 297.23 978.3 288.9C1059.6 284.73 1128.68 245.79 1186.07 190.61C1231.6 146.86 1272.29 97.51 1339.25 90.1C1463.29 76.32 1513.78 205.39 1557.49 297.16C1583.65 352.05 1611.07 419.25 1664.88 453.03C1751.05 507.1 1850.56 433.26 1919 " stroke="#666666" stroke-opacity="1.000000" stroke-width="1.000000"/>
		<path id="Vector" d="M0.84 286.37C152.02 163.18 350.49 27.15 557.91 78.24C710.36 115.77 831.13 272.3 996.2 261.59C1071.01 256.73 1133.69 220.4 1186.23 169.16C1228.15 128.27 1264.9 81.69 1326.1 71.69C1448.18 51.75 1508.49 184.07 1555.85 271.82C1583.06 322.19 1612.58 380.56 1661.97 413.06C1748.34 469.9 1845.52 406.98 1919.03 " stroke="#666666" stroke-opacity="1.000000" stroke-width="1.000000"/>
		<path id="Vector" d="M0.84 262.69C154.88 143.85 363.02 12.42 568.9 64.79C718.6 102.86 846.73 245.74 1008.27 236.97C1077.15 233.24 1137.46 196.54 1185.62 149.85C1224.21 112.45 1258.56 67.88 1314.01 56.14C1434.16 30.73 1503.27 164.07 1555.6 247.32C1587.05 297.36 1619.94 352.44 1673.96 380.74C1759.44 425.51 1844.45 376.09 1919.03 " stroke="#666666" stroke-opacity="1.000000" stroke-width="1.000000"/>
		<path id="Vector" d="M0.84 239.01C159.82 123.88 373.02 2.96 578.7 53.89C726.96 90.61 860.54 222.91 1019.6 212.04C1083.67 207.67 1138.43 175.47 1184.21 132.44C1222.69 96.26 1257.28 52.16 1312.27 42C1426.52 20.88 1500.94 146.1 1556.7 223.67C1588.69 268.19 1622.6 313.6 1671.38 340.57C1756.24 387.47 1841.76 344.54 1919.03 " stroke="#666666" stroke-opacity="1.000000" stroke-width="1.000000"/>
		<path id="Vector" d="M0.84 215.34C160.92 107.56 367.47 3.52 568.19 41.34C723.53 70.62 863.92 200.4 1027.06 188.98C1088.93 184.63 1141.63 153.08 1186.68 112.52C1223.55 79.34 1257.02 41.08 1308.1 31.44C1413.83 11.48 1492.55 119.33 1550.66 189.79C1588.69 235.95 1630.25 286.6 1687.16 310.2C1767.62 343.56 1846.83 307.92 1919.05 " stroke="#666666" stroke-opacity="1.000000" stroke-width="1.000000"/>
		<path id="Vector" d="M0.84 191.66C164.91 90.25 375.73 -2.79 574.58 35.23C726.17 64.22 873.46 179.39 1032.01 167.7C1147.15 159.21 1197.41 46.38 1301.18 23.52C1405.54 0.56 1490.51 102.17 1554.65 167.93C1593.22 207.49 1633.47 249.04 1685.55 270.51C1766.16 303.75 1844.4 274.27 1919 " stroke="#666666" stroke-opacity="1.000000" stroke-width="1.000000"/>
		<path id="Vector" d="M0.84 167.98C169.23 73.86 376.06 -2.54 573.05 29.14C725.86 53.72 875.86 158.11 1034.11 146.28C1142.8 138.14 1200.91 36.76 1301.25 17.1C1399.07 -2.05 1483.24 78.62 1550.43 137.56C1591.91 173.97 1634.6 212.17 1686.85 232.39C1766.88 263.38 1843.43 239.6 1919.05 " stroke="#666666" stroke-opacity="1.000000" stroke-width="1.000000"/>
		<path id="Vector" d="M0.84 144.31C171.76 59.62 376.29 -2.92 569.72 24.64C722.64 46.43 876.2 136.74 1033.13 125.36C1137.43 117.79 1204.9 29.83 1303.39 11.94C1400.56 -5.73 1489.05 67.16 1561.71 120.43C1601.17 149.34 1642.3 178.59 1688.85 195.06C1769.08 223.44 1842.3 204.73 1919.03 " stroke="#666666" stroke-opacity="1.000000" stroke-width="1.000000"/>
		<path id="Vector" d="M0.84 120.63C173.58 46.79 375.24 -2.66 564.86 20.76C718.04 39.68 873.03 115.18 1029.12 104.85C1131.55 98.08 1209.86 24.52 1308.68 8.48C1399.89 -6.29 1485.88 48.73 1560.51 93.53C1681.81 166.35 1781.92 189.33 1919.03 " stroke="#666666" stroke-opacity="1.000000" stroke-width="1.000000"/>
		<path id="Vector" d="M0.84 96.95C174.6 35.25 365.88 1.27 550.92 16.9C707.29 30.12 862.79 91.84 1020.78 83.91C1126.74 78.59 1217.54 15.85 1321.83 5.21C1408 -3.58 1489.33 35.56 1565.14 71.36C1686.72 128.81 1786.96 150.49 1919.03 " stroke="#666666" stroke-opacity="1.000000" stroke-width="1.000000"/>
		<path id="Vector" d="M0.84 73.28C177.72 24.23 366.57 1.4 550.23 14.42C703.51 25.28 857.37 70.92 1011.68 64.3C1120.04 59.65 1221.17 13.57 1328.69 4.11C1419.17 -3.84 1504.14 27.71 1588.28 56.81C1701.3 95.9 1800.89 110.45 1919.03 " stroke="#666666" stroke-opacity="1.000000" stroke-width="1.000000"/>
		<path id="Vector" d="M0.84 49.62C175.14 15.87 355.7 2.55 533.23 10.48C687.81 17.38 842.21 47.66 997.22 43.56C1115.9 40.45 1231.68 8.82 1350.09 2.65C1434.6 -1.74 1516.29 17.71 1598.05 36.61C1706.95 61.77 1807.9 73.48 1919.03 " stroke="#666666" stroke-opacity="1.000000" stroke-width="1.000000"/>
		<path id="Vector" d="M0.84 25.95C173.76 8.05 348.44 2.55 522.25 6.46C675.07 9.92 827.81 25.13 980.75 23.08C1110.82 21.35 1240.25 5.08 1370.27 1.86C1554.7 -2.72 1734.04 45.87 1919.03 " stroke="#666666" stroke-opacity="1.000000" stroke-width="1.000000"/>
		<path id="Vector" d="M0.84 2.27C640.21 -1.26 1279.66 6.13 1919.03 " stroke="#666666" stroke-opacity="1.000000" stroke-width="1.000000"/>
	</g>
</svg>
