<svg width="260.000000" height="44.000000" viewBox="0 0 260 44" fill="none" xmlns="http://www.w3.org/2000/svg" xmlns:xlink="http://www.w3.org/1999/xlink">
	<desc>
			Created with Pixso.
	</desc>
	<defs/>
	<rect id="Sub Container" rx="21.500000" width="43.000000" height="43.000000" transform="translate(0.500000 0.500000)" fill="#1A1A1A" fill-opacity="1.000000"/>
	<path id="Shape" d="M21.15 11.3L18.11 16.04C17.98 16.25 17.77 16.4 17.53 16.46L12.09 17.89C11.38 18.08 11.11 18.93 11.57 19.49L15.13 23.84C15.29 24.04 15.37 24.28 15.35 24.53L15.03 30.15C14.99 30.88 15.71 31.4 16.39 31.14L21.63 29.1C21.87 29.01 22.12 29.01 22.36 29.1L27.6 31.14C28.28 31.4 29 30.88 28.96 30.15L28.64 24.53C28.62 24.28 28.7 24.04 28.86 23.84L32.42 19.49C32.88 18.93 32.61 18.08 31.9 17.89L26.46 16.46C26.22 16.4 26.01 16.25 25.88 16.04L22.84 11.3C22.44 10.69 21.55 10.69 21.15 11.3Z" fill="#FFE600" fill-opacity="1.000000" fill-rule="evenodd"/>
	<rect id="Sub Container" rx="21.500000" width="43.000000" height="43.000000" transform="translate(0.500000 0.500000)" stroke="#262626" stroke-opacity="1.000000" stroke-width="1.000000"/>
	<rect id="Sub Container" rx="21.500000" width="43.000000" height="43.000000" transform="translate(54.500000 0.500000)" fill="#1A1A1A" fill-opacity="1.000000"/>
	<path id="Shape" d="M75.15 11.3L72.11 16.04C71.98 16.25 71.77 16.4 71.53 16.46L66.09 17.89C65.38 18.08 65.11 18.93 65.57 19.49L69.13 23.84C69.29 24.04 69.37 24.28 69.35 24.53L69.03 30.15C68.99 30.88 69.71 31.4 70.39 31.14L75.63 29.1C75.87 29.01 76.12 29.01 76.36 29.1L81.6 31.14C82.28 31.4 83 30.88 82.96 30.15L82.64 24.53C82.62 24.28 82.7 24.04 82.86 23.84L86.42 19.49C86.88 18.93 86.61 18.08 85.9 17.89L80.46 16.46C80.22 16.4 80.01 16.25 79.88 16.04L76.84 11.3C76.44 10.69 75.55 10.69 75.15 11.3Z" fill="#FFE600" fill-opacity="1.000000" fill-rule="evenodd"/>
	<rect id="Sub Container" rx="21.500000" width="43.000000" height="43.000000" transform="translate(54.500000 0.500000)" stroke="#262626" stroke-opacity="1.000000" stroke-width="1.000000"/>
	<rect id="Sub Container" rx="21.500000" width="43.000000" height="43.000000" transform="translate(108.500000 0.500000)" fill="#1A1A1A" fill-opacity="1.000000"/>
	<path id="Shape" d="M129.15 11.3L126.12 16.04C125.98 16.25 125.77 16.4 125.53 16.46L120.09 17.89C119.38 18.08 119.11 18.93 119.57 19.49L123.13 23.84C123.29 24.04 123.37 24.28 123.35 24.53L123.03 30.15C122.99 30.88 123.71 31.4 124.39 31.14L129.63 29.1C129.87 29.01 130.12 29.01 130.36 29.1L135.6 31.14C136.28 31.4 137 30.88 136.96 30.15L136.64 24.53C136.62 24.28 136.7 24.04 136.86 23.84L140.42 19.49C140.88 18.93 140.61 18.08 139.9 17.89L134.46 16.46C134.22 16.4 134.01 16.25 133.88 16.04L130.84 11.3C130.44 10.69 129.55 10.69 129.15 11.3Z" fill="#FFE600" fill-opacity="1.000000" fill-rule="evenodd"/>
	<rect id="Sub Container" rx="21.500000" width="43.000000" height="43.000000" transform="translate(108.500000 0.500000)" stroke="#262626" stroke-opacity="1.000000" stroke-width="1.000000"/>
	<rect id="Sub Container" rx="21.500000" width="43.000000" height="43.000000" transform="translate(162.500000 0.500000)" fill="#1A1A1A" fill-opacity="1.000000"/>
	<path id="Shape" d="M183.15 11.3L180.12 16.04C179.98 16.25 179.77 16.4 179.53 16.46L174.09 17.89C173.38 18.08 173.11 18.93 173.57 19.49L177.13 23.84C177.29 24.04 177.37 24.28 177.35 24.53L177.03 30.15C176.99 30.88 177.71 31.4 178.39 31.14L183.63 29.1C183.87 29.01 184.12 29.01 184.36 29.1L189.6 31.14C190.28 31.4 191 30.88 190.96 30.15L190.64 24.53C190.62 24.28 190.7 24.04 190.86 23.84L194.42 19.49C194.88 18.93 194.61 18.08 193.9 17.89L188.46 16.46C188.22 16.4 188.01 16.25 187.88 16.04L184.84 11.3C184.44 10.69 183.55 10.69 183.15 11.3Z" fill="#FFE600" fill-opacity="1.000000" fill-rule="evenodd"/>
	<rect id="Sub Container" rx="21.500000" width="43.000000" height="43.000000" transform="translate(162.500000 0.500000)" stroke="#262626" stroke-opacity="1.000000" stroke-width="1.000000"/>
	<rect id="Sub Container" rx="21.500000" width="43.000000" height="43.000000" transform="translate(216.500000 0.500000)" fill="#1A1A1A" fill-opacity="1.000000"/>
	<path id="Shape" d="M237.15 11.3L234.12 16.04C233.98 16.25 233.77 16.4 233.53 16.46L228.09 17.89C227.38 18.08 227.11 18.93 227.57 19.49L231.13 23.84C231.29 24.04 231.37 24.28 231.35 24.53L231.03 30.15C230.99 30.88 231.71 31.4 232.39 31.14L237.63 29.1C237.87 29.01 238.12 29.01 238.36 29.1L243.6 31.14C244.28 31.4 245 30.88 244.96 30.15L244.64 24.53C244.62 24.28 244.7 24.04 244.86 23.84L248.42 19.49C248.88 18.93 248.61 18.08 247.9 17.89L242.46 16.46C242.22 16.4 242.01 16.25 241.88 16.04L238.84 11.3C238.44 10.69 237.55 10.69 237.15 11.3Z" fill="#FFE600" fill-opacity="1.000000" fill-rule="evenodd"/>
	<rect id="Sub Container" rx="21.500000" width="43.000000" height="43.000000" transform="translate(216.500000 0.500000)" stroke="#262626" stroke-opacity="1.000000" stroke-width="1.000000"/>
</svg>
