<svg width="101.000000" height="20.000000" viewBox="0 0 101 20" fill="none" xmlns="http://www.w3.org/2000/svg" xmlns:xlink="http://www.w3.org/1999/xlink">
	<desc>
			Created with Pixso.
	</desc>
	<defs/>
	<path id="Vector" d="M97.82 19.36L97.82 11.35C97.82 10.42 97.52 9.66 96.92 9.07C96.34 8.47 95.59 8.17 94.66 8.17C94.05 8.17 93.5 8.3 93.02 8.57C92.54 8.84 92.16 9.22 91.89 9.7C91.62 10.18 91.49 10.73 91.49 11.35L90.24 10.65C90.24 9.59 90.47 8.66 90.94 7.85C91.4 7.02 92.03 6.38 92.84 5.91C93.67 5.43 94.6 5.19 95.62 5.19C96.66 5.19 97.58 5.46 98.39 6C99.2 6.52 99.84 7.21 100.3 8.05C100.76 8.88 101 9.75 101 10.65L101 19.36L97.82 19.36ZM88.31 19.36L88.31 5.48L91.49 5.48L91.49 19.36L88.31 19.36Z" fill="#FFFFFF" fill-opacity="1.000000" fill-rule="evenodd"/>
	<path id="Vector" d="M81.56 19.36L81.56 5.48L84.74 5.48L84.74 19.36L81.56 19.36ZM83.15 2.94C82.61 2.94 82.16 2.75 81.79 2.39C81.44 2.02 81.27 1.57 81.27 1.03C81.27 0.49 81.44 0.04 81.79 -0.33C82.16 -0.7 82.61 -0.88 83.15 -0.88C83.71 -0.88 84.16 -0.7 84.51 -0.33C84.86 0.04 85.03 0.49 85.03 1.03C85.03 1.57 84.86 2.02 84.51 2.39C84.16 2.75 83.71 2.94 83.15 2.94Z" fill="#FFFFFF" fill-opacity="1.000000" fill-rule="evenodd"/>
	<path id="Vector" d="M72.54 19.64C71.15 19.64 69.9 19.34 68.78 18.72C67.68 18.08 66.8 17.22 66.15 16.12C65.51 15.02 65.19 13.79 65.19 12.42C65.19 11.05 65.51 9.83 66.15 8.75C66.78 7.65 67.64 6.78 68.72 6.15C69.82 5.51 71.03 5.19 72.36 5.19C73.65 5.19 74.79 5.49 75.77 6.09C76.78 6.69 77.56 7.5 78.11 8.54C78.69 9.59 78.98 10.77 78.98 12.1C78.98 12.33 78.96 12.57 78.92 12.82C78.91 13.05 78.87 13.31 78.81 13.6L67.42 13.6L67.42 11L77.16 11L75.98 12.04C75.94 11.19 75.77 10.48 75.48 9.9C75.2 9.33 74.78 8.88 74.24 8.57C73.72 8.27 73.08 8.11 72.31 8.11C71.5 8.11 70.79 8.28 70.19 8.63C69.6 8.98 69.14 9.47 68.81 10.11C68.48 10.72 68.32 11.46 68.32 12.33C68.32 13.2 68.49 13.96 68.84 14.61C69.18 15.27 69.67 15.78 70.31 16.15C70.95 16.49 71.68 16.67 72.51 16.67C73.22 16.67 73.88 16.54 74.47 16.29C75.09 16.04 75.61 15.67 76.03 15.19L78.06 17.25C77.38 18.04 76.56 18.63 75.6 19.04C74.64 19.44 73.62 19.64 72.54 19.64Z" fill="#FFFFFF" fill-opacity="1.000000" fill-rule="evenodd"/>
	<path id="Vector" d="M57.67 19.36L57.67 -0.3L60.85 -0.3L60.85 19.36L57.67 19.36ZM54.35 8.37L54.35 5.48L64.18 5.48L64.18 8.37L54.35 8.37Z" fill="#FFFFFF" fill-opacity="1.000000" fill-rule="evenodd"/>
	<path id="Vector" d="M44.6 19.64C43.35 19.64 42.21 19.33 41.19 18.69C40.19 18.05 39.39 17.2 38.79 16.12C38.22 15.02 37.93 13.8 37.93 12.45C37.93 11.08 38.22 9.86 38.79 8.78C39.39 7.68 40.19 6.81 41.19 6.17C42.21 5.52 43.35 5.19 44.6 5.19C45.66 5.19 46.6 5.42 47.41 5.89C48.24 6.33 48.89 6.95 49.37 7.74C49.86 8.53 50.1 9.42 50.1 10.42L50.1 14.41C50.1 15.41 49.86 16.31 49.37 17.1C48.91 17.89 48.27 18.52 47.44 18.98C46.61 19.42 45.66 19.64 44.6 19.64ZM45.12 16.64C46.3 16.64 47.24 16.24 47.96 15.45C48.69 14.66 49.06 13.65 49.06 12.42C49.06 11.59 48.89 10.86 48.56 10.22C48.24 9.59 47.77 9.09 47.18 8.75C46.6 8.38 45.91 8.2 45.12 8.2C44.35 8.2 43.67 8.38 43.07 8.75C42.49 9.09 42.03 9.59 41.68 10.22C41.36 10.86 41.19 11.59 41.19 12.42C41.19 13.25 41.36 13.98 41.68 14.61C42.03 15.25 42.49 15.75 43.07 16.12C43.67 16.46 44.35 16.64 45.12 16.64ZM48.85 19.36L48.85 15.63L49.4 12.24L48.85 8.89L48.85 5.48L52.03 5.48L52.03 19.36L48.85 19.36Z" fill="#FFFFFF" fill-opacity="1.000000" fill-rule="evenodd"/>
	<path id="Vector" d="M30.37 19.36L30.37 -0.3L33.55 -0.3L33.55 19.36L30.37 19.36ZM27.05 8.37L27.05 5.48L36.88 5.48L36.88 8.37L27.05 8.37Z" fill="#FFFFFF" fill-opacity="1.000000" fill-rule="evenodd"/>
	<path id="Vector" d="M20.38 19.64C19.61 19.64 18.87 19.55 18.16 19.36C17.44 19.14 16.79 18.85 16.19 18.49C15.59 18.1 15.07 17.64 14.63 17.1L16.65 15.08C17.14 15.64 17.68 16.06 18.3 16.35C18.94 16.62 19.65 16.75 20.44 16.75C21.15 16.75 21.69 16.65 22.06 16.44C22.43 16.22 22.61 15.92 22.61 15.51C22.61 15.09 22.43 14.76 22.09 14.53C21.74 14.3 21.29 14.1 20.73 13.95C20.19 13.78 19.61 13.6 19 13.43C18.4 13.26 17.82 13.03 17.26 12.74C16.72 12.43 16.28 12.01 15.93 11.49C15.58 10.97 15.41 10.3 15.41 9.47C15.41 8.58 15.61 7.82 16.02 7.19C16.44 6.55 17.03 6.06 17.78 5.71C18.55 5.37 19.47 5.19 20.53 5.19C21.64 5.19 22.63 5.39 23.48 5.8C24.34 6.18 25.07 6.77 25.64 7.56L23.62 9.59C23.22 9.08 22.75 8.71 22.23 8.46C21.71 8.21 21.12 8.08 20.44 8.08C19.8 8.08 19.31 8.18 18.97 8.37C18.62 8.56 18.45 8.84 18.45 9.21C18.45 9.59 18.62 9.89 18.97 10.11C19.31 10.32 19.76 10.5 20.3 10.65C20.85 10.81 21.43 10.98 22.03 11.18C22.65 11.35 23.23 11.6 23.77 11.93C24.32 12.24 24.78 12.66 25.12 13.2C25.47 13.72 25.64 14.4 25.64 15.25C25.64 16.6 25.17 17.67 24.23 18.46C23.28 19.25 22 19.64 20.38 19.64Z" fill="#FFFFFF" fill-opacity="1.000000" fill-rule="evenodd"/>
	<path id="Vector" d="M-0.77 19.36L-0.77 -0.88L2.55 -0.88L2.55 19.36L-0.77 19.36ZM1.51 19.36L1.51 16.32L12.84 16.32L12.84 19.36L1.51 19.36ZM1.51 10.48L1.51 7.56L11.86 7.56L11.86 10.48L1.51 10.48ZM1.51 2.16L1.51 -0.88L12.7 -0.88L12.7 2.16L1.51 2.16Z" fill="#FFFFFF" fill-opacity="1.000000" fill-rule="evenodd"/>
</svg>
