<svg width="20.000000" height="18.000000" viewBox="0 0 20 18" fill="none" xmlns="http://www.w3.org/2000/svg" xmlns:xlink="http://www.w3.org/1999/xlink">
	<desc>
			Created with Pixso.
	</desc>
	<defs/>
	<path id="Vector" d="M15 4L16 4L16 5C16 5.26 16.1 5.51 16.29 5.7C16.48 5.89 16.73 6 17 6C17.26 6 17.51 5.89 17.7 5.7C17.89 5.51 18 5.26 18 5L18 4L19 4C19.26 4 19.51 3.89 19.7 3.7C19.89 3.51 20 3.26 20 3C20 2.73 19.89 2.48 19.7 2.29C19.51 2.1 19.26 2 19 2L18 2L18 1C18 0.73 17.89 0.48 17.7 0.29C17.51 0.1 17.26 0 17 0C16.73 0 16.48 0.1 16.29 0.29C16.1 0.48 16 0.73 16 1L16 2L15 2C14.73 2 14.48 2.1 14.29 2.29C14.1 2.48 14 2.73 14 3C14 3.26 14.1 3.51 14.29 3.7C14.48 3.89 14.73 4 15 4ZM19 8C18.73 8 18.48 8.1 18.29 8.29C18.1 8.48 18 8.73 18 9L18 15C18 15.26 17.89 15.51 17.7 15.7C17.51 15.89 17.26 16 17 16L3 16C2.73 16 2.48 15.89 2.29 15.7C2.1 15.51 2 15.26 2 15L2 5.4L7.87 11.3C8.44 11.86 9.2 12.17 10 12.17C10.79 12.17 11.55 11.86 12.12 11.3L14.58 8.83C14.77 8.64 14.88 8.38 14.88 8.12C14.88 7.85 14.77 7.59 14.58 7.4C14.4 7.22 14.14 7.11 13.87 7.11C13.61 7.11 13.35 7.22 13.16 7.4L10.7 9.87C10.51 10.06 10.26 10.16 10 10.16C9.73 10.16 9.48 10.06 9.29 9.87L3.41 4L11 4C11.26 4 11.51 3.89 11.7 3.7C11.89 3.51 12 3.26 12 3C12 2.73 11.89 2.48 11.7 2.29C11.51 2.1 11.26 2 11 2L3 2C2.2 2 1.44 2.31 0.87 2.87C0.31 3.44 0 4.2 0 5L0 15C0 15.79 0.31 16.55 0.87 17.12C1.44 17.68 2.2 18 3 18L17 18C17.79 18 18.55 17.68 19.12 17.12C19.68 16.55 20 15.79 20 15L20 9C20 8.73 19.89 8.48 19.7 8.29C19.51 8.1 19.26 8 19 8Z" fill="#999999" fill-opacity="1.000000" fill-rule="nonzero"/>
</svg>
